# xmcd
#
# Track frame offsets:
#	185
#	13282
#	30150
#	52152
#	63895
#	83660
#	108732
#	131652
#	152220
#	168607
#	188130
#	207850
#
# Disc length: 3457 seconds
#
# Revision: 0
# Processed by: cddbd v1.5.1PL2 Copyright (c) Steve Scherf et al.
# Submitted via: audiograbber 1.83.01
#
DISCID=a20d7f0c
DTITLE=Various Artist - MOUSIKES TOY KOSMOU CD1
DYEAR=1900
DGENRE=New Age
TTITLE0=ANGELO BRANDUARDI - Vanita di vanita
TTITLE1=MADRADEUS - O pastor
TTITLE2=ELBOSCO - Nirvana
TTITLE3=DEAD CAN DANCE - Saltarello
TTITLE4=VARIAZIONI - Arabian nite
TTITLE5=SACRED SPIRIT II - The sun won't talk no more
TTITLE6=VANESSA MAE - Theme from caravans
TTITLE7=BARRY ADAMSON - Something wicked this way comes
TTITLE8=PENGUIN CAFE ORCHESTRA - Music for a found harmonioum
TTITLE9=KHALED - Aicha
TTITLE10=YOSEFA - Taj mahal
TTITLE11=McLAUGHLIN, MEOLA, DELUCIA - Mediterranean sundance
EXTD=
EXTT0=
EXTT1=
EXTT2=
EXTT3=
EXTT4=
EXTT5=
EXTT6=
EXTT7=
EXTT8=
EXTT9=
EXTT10=
EXTT11=
PLAYORDER=
